<svg version="1.1" id="Icons" xmlns="http://www.w3.org/2000/svg" xmlns:xlink="http://www.w3.org/1999/xlink" x="0px" y="0px"
	 viewBox="0 0 144 144" enable-background="new 0 0 144 144" xml:space="preserve">
<g id="Travel_Planning">
</g>
<g id="Globe_1_">
</g>
<g id="Map">
</g>
<g id="Flight_Date">
</g>
<g id="Alarm_Clock">
</g>
<g id="Small_Suitcase">
</g>
<g id="Backpack">
	<g id="XMLID_549_">
		<path id="XMLID_567_" opacity="0.1" d="M66,26.26V26v-2c0-4.056,2.7-6,6-6c3.3,0,6,1.79,6,5.8V26v0.259
			c3.352,0.293,6.337,0.841,9,1.625V27v-1c0-10.875-6.75-16-15-16s-15,5-15,16v1v0.888C59.663,27.103,62.648,26.554,66,26.26z"/>
		<path id="XMLID_566_" opacity="0.1" d="M28.035,118c0.266-3.082,1.389-13.299,2.593-24.03L31,90c-10.875,3-12,10.125-12,17.482
			v4.856c0,5.014,3.965,9.171,9,9.663l0.145-1.543C28.016,119.629,27.966,118.805,28.035,118z"/>
		<path id="XMLID_565_" opacity="0.1" d="M115.965,118c-0.266-3.082-1.389-13.299-2.593-24.03L113,90c10.875,3,12,10.125,12,17.482
			v4.856c0,5.014-3.965,9.171-9,9.663l-0.145-1.543C115.984,119.629,116.034,118.805,115.965,118z"/>
		<path id="XMLID_564_" opacity="0.1" d="M72,134h28c2.2,0,4-1.8,4-4l-4-18c-3-16.5-8.833-28-28-28s-25,11.5-28,28l-4,18
			c0,2.2,1.8,4,4,4H72z"/>

			<path id="XMLID_561_" fill="none" stroke="#000000" stroke-width="4" stroke-linecap="round" stroke-linejoin="round" stroke-miterlimit="10" d="
			M87,27v-1c0-10.875-6.75-16-15-16s-15,5-15,16v1"/>

			<path id="XMLID_560_" fill="none" stroke="#000000" stroke-width="4" stroke-linecap="round" stroke-linejoin="round" stroke-miterlimit="10" d="
			M98,63.75c-2.25-16-5.25-28-26-28s-23.75,12-26,28"/>

			<line id="XMLID_559_" fill="none" stroke="#000000" stroke-width="4" stroke-linecap="round" stroke-linejoin="round" stroke-miterlimit="10" x1="65" y1="96" x2="79" y2="96"/>

			<path id="XMLID_556_" fill="none" stroke="#000000" stroke-width="4" stroke-linecap="round" stroke-linejoin="round" stroke-miterlimit="10" d="
			M31,90c-10.875,3-12,10.125-12,17.482v4.856c0,5.014,3.965,9.171,9,9.663"/>

			<path id="XMLID_555_" fill="none" stroke="#000000" stroke-width="4" stroke-linecap="round" stroke-linejoin="round" stroke-miterlimit="10" d="
			M113,90c10.875,3,12,10.125,12,17.482v4.856c0,5.014-3.965,9.171-9,9.663"/>

			<path id="XMLID_553_" fill="none" stroke="#000000" stroke-width="4" stroke-linecap="round" stroke-linejoin="round" stroke-miterlimit="10" d="
			M72,134h28c2.2,0,4-1.8,4-4l-4-18c-3-16.5-8.833-28-28-28s-25,11.5-28,28l-4,18c0,2.2,1.8,4,4,4H72z"/>

			<path id="XMLID_552_" fill="none" stroke="#000000" stroke-width="4" stroke-linecap="round" stroke-linejoin="round" stroke-miterlimit="10" d="
			M66,26v-2c0-4.056,2.7-6,6-6s6,1.79,6,5.8V26"/>

			<path id="XMLID_550_" fill="none" stroke="#000000" stroke-width="4" stroke-linecap="round" stroke-linejoin="round" stroke-miterlimit="10" d="
			M72.015,134h27.952c8.796,0,16.622-8.75,15.997-16c-0.625-7.25-5.993-54-5.993-54c-3.124-22.5-9.112-38-37.974-38h0.018
			c-28.862,0-34.859,15.5-37.983,38c0,0-5.373,46.75-5.997,54c-0.625,7.25,7.197,16,15.993,16H72.015z"/>
	</g>
</g>
<g id="Large_Suitcase">
</g>
<g id="Toiletries">
</g>
<g id="Camera">
</g>
<g id="Phone">
</g>
<g id="Laptop">
</g>
<g id="Passport">
</g>
<g id="Taxi">
</g>
<g id="Signs">
</g>
<g id="Airport">
</g>
<g id="Wind_Sock">
</g>
<g id="Check-In">
</g>
<g id="Ticket">
</g>
<g id="Wallet">
</g>
<g id="Tag">
</g>
<g id="Escalator">
</g>
<g id="Body_Scanner">
</g>
<g id="Walking_with_Suitcase">
</g>
<g id="Gate_Number">
</g>
<g id="Seats">
</g>
<g id="Seat_Belt">
</g>
<g id="Take_Off">
</g>
<g id="Plane_Window">
</g>
<g id="International_Travel">
</g>
<g id="Meal">
</g>
<g id="Landing">
</g>
<g id="Shuttle_Bus">
</g>
<g id="Hotel">
</g>
<g id="Hotel_Check-In">
</g>
<g id="Valet_1_">
</g>
<g id="Baggage_Trolley">
</g>
<g id="Door_Hanger">
</g>
<g id="Hotel_Room">
</g>
<g id="Shower">
</g>
</svg>
